PathFileType	4	(X/Y/Z)	C:\Users\WrightLab\Desktop\Jo\P1_boxCal6.trc
DataRate	CameraRate	NumFrames	NumMarkers	Units	OrigDataRate	OrigDataStartFrame	OrigNumFrames
100.00	100.00	       23	19	mm	100.00	93	       739
Frame#	Time	Headset_Front			Headset_Back			Headset_Left			Headset_Right			Left_Shoulder			Right_Shoulder			Sternum			C7			Left Elbow			Right Elbow			Left Wrist			Right Wrist			Left ASIS			Right ASIS			S2			Left Knee			Right Knee			Left Ankle			Right Ankle			
		X1	Y1	Z1	X2	Y2	Z2	X3	Y3	Z3	X4	Y4	Z4	X5	Y5	Z5	X6	Y6	Z6	X7	Y7	Z7	X8	Y8	Z8	X9	Y9	Z9	X10	Y10	Z10	X11	Y11	Z11	X12	Y12	Z12	X13	Y13	Z13	X14	Y14	Z14	X15	Y15	Z15	X16	Y16	Z16	X17	Y17	Z17	X18	Y18	Z18	X19	Y19	Z19	

93	0.920				-532.33081	387.68637	-1536.03430							-222.17233	1229.44080	-1518.87756	-600.26349	1221.43823	-1475.43262							-149.20392	908.91473	-1556.51953	-688.79498	949.15027	-1510.79639	-92.08105	721.61023	-1460.72766	-682.23889	705.56165	-1420.01575	-319.72675	843.33307	-1360.11646	-517.90594	839.66449	-1371.23816				-219.33961	452.31732	-1337.04932	-492.41385	37.51609	-1621.05847	-192.17738	74.74170	-1328.76880				
94	0.930	-410.02744	1120.85107	-1363.95813	-532.33698	388.01672	-1532.41895							-221.84059	1229.89099	-1516.84155	-599.88837	1219.99719	-1468.58521							-148.81339	908.40802	-1552.86804	-688.37402	949.45850	-1507.41077	-90.51984	721.41742	-1459.26099	-682.08240	704.75745	-1413.73694	-319.09753	840.82068	-1361.35461	-516.93335	838.72565	-1370.83557				-218.80844	452.25940	-1334.64282	-492.41290	37.52704	-1621.05627	-192.96875	74.68424	-1313.09399				
95	0.940	-409.51141	1121.47034	-1361.40417	-531.71539	388.76660	-1529.44507							-220.97954	1228.85938	-1511.40808	-599.26978	1219.65332	-1464.43091							-148.49133	907.91010	-1549.04492	-687.05908	949.32013	-1504.09583	-88.58488	721.68268	-1458.85339	-681.75922	705.16608	-1409.39722	-319.46381	839.11377	-1358.16479	-516.50708	836.93719	-1366.64099				-219.00697	451.87173	-1332.47205	-492.38635	37.57888	-1620.92712	-191.87115	74.34538	-1298.26416				
96	0.950	-409.19138	1120.72180	-1355.72827	-530.94531	388.18600	-1527.72058							-220.53194	1227.36780	-1504.65491	-598.62885	1220.14783	-1462.06775							-148.17372	907.30139	-1545.16248	-686.70380	948.10535	-1497.93262	-86.91980	720.77026	-1456.57288	-683.83490	703.38812	-1409.84363	-318.65314	839.13293	-1352.66821	-516.06183	836.38733	-1363.06995				-218.93483	449.58801	-1327.24622	-492.38422	37.62310	-1620.92761	-193.79265	74.27712	-1280.99011				
97	0.960				-530.30609	386.53406	-1526.45630							-219.99763	1226.97485	-1500.53918	-597.94879	1219.80530	-1457.84863							-147.78445	906.85712	-1541.35461	-686.42816	948.05756	-1493.86182	-85.84180	719.45929	-1453.16760	-682.06842	704.14630	-1396.24683	-316.92969	839.20135	-1344.19739	-515.63757	835.42413	-1359.78247				-218.37787	449.21878	-1325.43005	-492.36142	37.71310	-1620.82898	-194.14598	74.89400	-1265.07385				
98	0.970	-407.35516	1119.17151	-1344.48718	-529.82251	386.86237	-1524.07727							-219.61574	1227.48755	-1498.22888	-597.46246	1218.37146	-1450.90100							-147.45184	906.24377	-1537.23132	-686.02197	948.18481	-1490.00012	-84.53119	719.04022	-1450.97742	-681.38654	704.98132	-1392.33264	-316.01007	838.03296	-1341.01294	-514.47491	834.14575	-1352.08997				-218.78979	447.18042	-1321.76379	-492.36884	37.71088	-1620.86853	-192.93623	77.62782	-1253.02722				
99	0.980	-406.74234	1119.77234	-1341.94238	-529.93646	387.24344	-1519.96887							-218.65631	1226.49255	-1492.65430	-596.44141	1217.47278	-1445.57178							-147.00862	905.70374	-1533.21423	-685.49451	948.25714	-1485.95349	-82.70801	718.44867	-1448.78967	-681.79022	703.63623	-1384.61951	-315.88266	837.01642	-1338.61633	-513.88538	833.99677	-1347.90515				-218.51634	445.83737	-1317.01794	-492.36270	37.80888	-1620.86206	-195.67924	79.91960	-1240.71399				
100	0.990				-529.62299	386.49612	-1517.79358							-218.06099	1225.05078	-1485.70203	-595.60297	1217.17041	-1441.06934							-146.54945	904.96802	-1528.62817	-684.90027	947.37598	-1480.32214	-80.89758	718.32855	-1446.93896	-681.35400	702.89606	-1378.76379	-314.66708	834.44073	-1336.52283	-513.05359	834.41064	-1340.75256				-217.94897	445.43466	-1314.01892	-492.35501	37.93294	-1620.85425	-195.54726	82.67468	-1226.49487				
101	1.000	-404.96695	1116.91235	-1327.38379	-529.84857	386.30307	-1515.17297							-217.35439	1224.71619	-1481.31433	-594.92578	1215.76501	-1433.86487							-145.94647	904.31555	-1524.16455	-684.16217	945.64136	-1472.67334	-79.33224	717.28876	-1443.49084	-681.23065	702.99445	-1373.95276	-313.73056	835.86353	-1323.13745	-512.64368	832.67877	-1337.91504				-216.60152	443.87222	-1310.06982	-492.33054	37.97895	-1620.73450	-196.64682	82.74091	-1214.16394				
102	1.010	-404.15088	1117.57874	-1324.47974	-529.62909	386.46429	-1514.09595										-593.70306	1214.90332	-1428.22595							-145.24556	903.39819	-1518.93799	-683.31885	944.71539	-1466.47778	-78.24213	716.01013	-1439.39075	-680.86041	702.30731	-1368.09875	-312.13037	833.48181	-1322.06274	-511.30618	832.82996	-1331.05762				-216.88756	442.46640	-1305.00488	-492.36618	37.96629	-1620.92358	-197.46062	84.96268	-1203.51794				
103	1.020	-403.44339	1115.58240	-1315.24133	-529.97821	385.28339	-1510.58496							-214.94672	1222.67078	-1469.31152	-592.69745	1214.63635	-1423.44849							-144.59340	902.99133	-1514.62415	-682.57916	944.75989	-1462.14441	-76.67750	715.08698	-1435.71082	-680.29187	701.31860	-1361.56006	-312.22858	833.53961	-1317.98193	-509.97366	830.59039	-1326.32300				-215.75256	440.63922	-1301.54346	-492.33459	38.11033	-1620.79187	-197.44525	86.72691	-1193.84937				
104	1.030	-402.02643	1114.88416	-1309.20947	-529.80908	385.40720	-1509.75696							-213.87764	1221.45813	-1462.65320	-591.83557	1213.26831	-1415.96960							-143.79503	902.43127	-1509.83484	-681.54639	944.69141	-1457.46021	-74.89880	715.10925	-1433.71619	-680.23840	700.84320	-1355.33484	-310.79272	831.42145	-1308.53589	-509.59454	829.58856	-1318.77954				-215.36154	440.04218	-1296.29968	-492.34241	38.23262	-1620.86682	-198.25513	88.22775	-1182.73596				
105	1.040	-400.87512	1113.55737	-1301.48010	-528.85242	384.49463	-1509.61194							-212.46561	1220.29895	-1456.10583	-590.41919	1212.46350	-1409.96558							-142.93652	901.34406	-1503.98230	-680.40466	942.69501	-1448.80420	-72.95265	714.30969	-1430.30774	-680.48737	699.44592	-1347.75977	-309.40924	831.76868	-1301.77710	-508.44354	829.78656	-1314.63782				-214.16551	439.78992	-1291.12268	-492.31946	38.45786	-1620.80310	-198.60464	89.68458	-1174.23328				
106	1.050	-399.65579	1112.32263	-1293.40759	-527.36792	385.41541	-1501.90295							-211.44838	1219.62756	-1450.33813	-589.17041	1212.28833	-1404.64856							-142.18736	900.86932	-1499.43091	-679.35590	941.18549	-1441.06372	-71.50159	712.96985	-1424.99402	-680.60663	699.84113	-1342.93591	-308.71280	829.31238	-1299.53259	-507.26636	829.15405	-1307.09412				-214.11008	438.65765	-1282.84375	-492.85187	40.25044	-1618.74634	-198.49841	90.35061	-1166.33044				
107	1.060	-398.04520	1111.77881	-1286.75427	-526.03522	385.85779	-1493.85754							-209.79211	1219.27039	-1445.38074	-587.78308	1210.47461	-1395.55640							-141.00096	899.72797	-1492.99683	-678.20087	941.21564	-1436.16907	-69.87923	712.12970	-1420.63367	-680.00769	697.79541	-1334.97253	-308.02109	829.38831	-1288.92090	-506.43738	827.44257	-1299.96777				-213.89859	437.85403	-1276.45764	-492.71286	40.80656	-1618.14490	-199.74962	90.23906	-1159.04041				
108	1.070				-524.81354	383.68048	-1494.24915							-208.81801	1217.68408	-1436.99158	-586.38800	1210.33167	-1389.99890							-140.12976	899.13043	-1488.41370	-676.51917	940.79639	-1429.72717	-68.94678	711.32526	-1415.98865	-679.38123	697.16492	-1328.83655	-306.42819	827.24158	-1281.66321	-505.75790	825.65399	-1296.94519				-213.01695	436.85416	-1269.44006	-492.64078	41.18757	-1617.85681	-199.65813	89.97295	-1152.70825				
109	1.080	-393.43655	1374.11340	-1197.02112	-523.35236	383.42413	-1491.68872							-206.67783	1216.23926	-1429.41260	-584.66833	1208.44995	-1380.36426							-138.88976	897.78577	-1481.61194	-675.21149	939.09961	-1420.66248	-67.29292	710.17920	-1410.53186	-679.63757	696.59802	-1321.90344	-306.14008	825.90582	-1277.71362	-504.99130	824.80988	-1291.89087				-212.42201	436.00775	-1262.29700	-492.08240	41.30954	-1620.03589	-198.28777	89.56496	-1146.45447				
110	1.090	-391.34390	1373.89978	-1189.98035	-520.15967	386.27954	-1479.19775							-205.51022	1216.07214	-1424.28564	-582.79816	1207.75439	-1372.89172							-137.68889	896.64081	-1475.31897	-674.06702	938.10028	-1412.81470	-65.06160	709.40900	-1406.52771	-677.91522	695.66956	-1316.18506	-304.38821	823.87579	-1270.98169	-503.07037	823.08441	-1282.31995				-211.86198	434.89282	-1256.44702	-491.93524	41.78937	-1619.36890	-197.91687	88.23915	-1140.22400				
111	1.100	-389.52182	1373.03918	-1182.53943	-519.28046	383.39752	-1478.30115							-203.88509	1214.25671	-1415.02319	-581.42493	1207.90076	-1367.58862	-390.63504	1108.49622	-1256.07458				-136.51094	896.00415	-1469.82056	-671.96356	937.65137	-1405.16541	-63.14335	708.43677	-1401.15564	-677.30786	694.30817	-1308.83594	-303.38327	822.99786	-1260.51416	-502.85593	822.65601	-1273.34802				-211.42929	433.74231	-1249.89050	-491.78244	43.40463	-1618.77979	-198.09573	87.02901	-1136.31628				
112	1.110	-388.34259	1374.16663	-1176.12256	-517.63928	383.10272	-1477.64575							-202.16039	1214.02820	-1409.72192	-579.31891	1207.29016	-1359.38855	-389.00452	1107.53772	-1246.90833				-135.13661	894.83936	-1463.15881	-670.38599	938.13776	-1399.27014	-61.75076	706.46307	-1394.46582	-676.20184	693.23608	-1301.45068	-302.64456	820.07953	-1258.25403	-501.44342	821.13367	-1268.47620				-210.86279	432.48856	-1241.38916	-491.58173	44.16597	-1617.89819	-196.72005	86.27290	-1131.87561				
113	1.120	-385.65134	1374.56750	-1168.21655	-515.20453	386.19611	-1467.24158							-199.84843	1212.53833	-1401.22778	-577.52954	1206.75439	-1350.50110	-387.33588	1106.65332	-1237.49084				-133.66879	893.97266	-1456.65271	-668.92267	937.36938	-1390.45691	-60.15075	706.57922	-1390.18799	-675.23499	693.51355	-1295.78296	-301.37219	820.49268	-1245.87122	-500.76901	820.09418	-1261.31384	-364.71484	838.09662	-1568.05713	-210.88528	431.49979	-1234.10852	-491.35529	47.40285	-1618.35718	-195.53311	84.07805	-1128.30554				
114	1.130	-384.34741	1375.84558	-1161.30383	-513.71948	386.71307	-1463.51514							-197.45343	1211.13037	-1392.39905	-575.34644	1206.26306	-1341.95154	-385.27429	1106.50830	-1229.27771				-132.29268	892.92969	-1449.61365	-667.02203	935.83423	-1379.45435	-58.45734	705.43433	-1383.94446	-674.39331	692.61115	-1288.25317	-300.14844	818.30475	-1239.28040	-499.26147	820.25092	-1250.30505	-362.88474	838.05054	-1560.52588	-210.63399	429.85297	-1225.17798	-491.81674	49.93082	-1616.84851	-195.19255	80.72987	-1124.93164				
115	1.140	-380.57217	1375.94983	-1153.48584	-513.43848	386.87915	-1462.12195							-195.44725	1211.05920	-1386.40112	-572.73511	1206.29028	-1333.52319							-130.84921	892.30261	-1442.91943	-665.51666	936.45062	-1372.32666	-56.69415	704.30719	-1377.15955	-673.44452	692.02258	-1280.74268	-300.05978	817.65088	-1233.39661	-498.63672	819.25403	-1243.93542	-360.82831	837.90332	-1552.19141	-210.61693	427.99493	-1218.50110	-492.10672	52.38373	-1616.69275	-194.68863	79.73373	-1123.93359				
